{
.appVersion = "3306";
.formatVersion = 3;
DisplayStrings = (
ABCDEFGHILMNPRST,
ABCDEFGHIJKLMNOPQRSTU,
"THE QUICK BROWN FOX JUMPS OVER THE CRAZY DOG",
"012"
);
date = "2024-06-10 07:08:18 +0000";
familyName = "abc-natur-berlin-schleifengarten";
fontMaster = (
{
customParameters = (
{
name = paramArea;
value = 410;
},
{
name = paramDepth;
value = 20;
}
);
id = m01;
metricValues = (
{
over = 16;
pos = 800;
},
{
over = 16;
pos = 700;
},
{
over = 16;
pos = 500;
},
{
over = -16;
},
{
over = -16;
pos = -200;
},
{
}
);
name = Regular;
userData = {
HTLSManagerMasterRules = {
};
};
}
);
glyphs = (
{
glyphname = S;
lastChange = "2024-06-25 06:51:41 +0000";
layers = (
{
background = {
shapes = (
{
closed = 1;
nodes = (
(345,727,o),
(330,694,o),
(296,667,c),
(75,512,l),
(89,488,l),
(98,492,o),
(108,501,o),
(119,506,cs),
(134,513,o),
(152,502,o),
(168,496,c),
(179,507,l),
(137,528,l),
(209,581,o),
(284,623,o),
(354,686,cs),
(357,689,o),
(360,696,o),
(367,690,c),
(387,655,l),
(396,664,l),
(391,679,o),
(381,698,o),
(380,710,c),
(392,740,l),
(369,757,l)
);
},
{
closed = 1;
nodes = (
(309,666,l),
(296,675,l),
(148,583,l),
(44,520,l),
(61,501,l),
(331,639,l),
(372,619,l),
(392,623,l),
(378,630,o),
(358,637,o),
(350,644,cs),
(342,651,o),
(339,657,o),
(368,668,c),
(432,689,l),
(430,715,l)
);
},
{
closed = 1;
nodes = (
(83,369,l),
(140,358,o),
(224,337,o),
(253,336,cs),
(282,335,o),
(324,330,o),
(332,329,cs),
(340,328,o),
(390,286,o),
(459,266,c),
(468,297,l),
(458,304,o),
(446,299,o),
(439,318,c),
(435,373,l),
(404,373,l),
(404,361,o),
(412,339,o),
(403,337,cs),
(394,335,o),
(361,361,o),
(346,363,cs),
(196,382,l),
(90,404,l)
);
},
{
closed = 1;
nodes = (
(186,390,l),
(250,379,o),
(371,360,o),
(379,357,c),
(451,299,l),
(467,317,l),
(455,332,o),
(419,358,o),
(431,361,cs),
(482,376,l),
(481,396,l),
(453,393,o),
(421,384,o),
(397,386,c),
(328,386,o),
(261,393,o),
(194,416,c)
);
},
{
closed = 1;
nodes = (
(231,20,o),
(381,59,o),
(431,71,c),
(505,85,l),
(492,116,l),
(455,108,o),
(326,78,o),
(237,78,cs),
(229,78,o),
(165,106,o),
(156,128,c),
(155,164,l),
(148,181,o),
(124,184,o),
(123,172,cs),
(122,164,o),
(122,157,o),
(120,150,cs),
(118,143,o),
(110,138,o),
(101,142,c),
(82,152,l),
(60,113,l),
(126,86,o),
(135,53,o),
(176,33,c),
(124,14,l),
(125,-18,l),
(179,6,ls),
(185,9,o),
(195,5,o),
(200,7,cs),
(228,19,ls)
);
},
{
closed = 1;
nodes = (
(377,253,o),
(377,143,o),
(375,138,cs),
(373,133,o),
(306,97,o),
(299,92,c),
(208,21,l),
(225,-1,l),
(250,17,o),
(292,48,o),
(301,53,cs),
(310,58,o),
(414,110,o),
(423,115,cs),
(432,120,o),
(462,200,o),
(480,211,c),
(532,227,l),
(531,241,l),
(512,236,o),
(490,233,o),
(475,225,cs),
(460,217,o),
(460,219,o),
(456,235,c),
(463,298,l),
(378,311,l)
);
},
{
closed = 1;
nodes = (
(509,202,l),
(436,257,l),
(346,109,l),
(355,85,o),
(396,53,o),
(396,51,c)
);
},
{
closed = 1;
nodes = (
(106,326,l),
(164,331,l),
(154,403,l),
(168,370,l),
(183,381,l),
(172,413,o),
(149,456,o),
(149,478,cs),
(149,495,o),
(164,508,o),
(172,523,c),
(163,532,l),
(141,505,l),
(143,589,l),
(101,589,l)
);
}
);
};
layerId = m01;
shapes = (
{
alignment = -1;
pos = (105,0);
ref = _baston.corto.5;
},
{
alignment = -1;
pos = (366,-9);
ref = _baston.corto.7;
},
{
angle = -5.1;
pos = (132,44);
ref = _baston.corto.8;
},
{
angle = -5.1;
pos = (61,44);
ref = _baston.mediano.8;
},
{
pos = (41,0);
ref = _baston.mediano.9;
},
{
pos = (32,30);
ref = _baston.mediano.10;
},
{
pos = (253,0);
ref = _baston.doblado.3;
},
{
angle = -3.1;
pos = (38,-14);
ref = _baston.doblado.4;
},
{
angle = 203.5902;
pos = (314,913);
ref = _baston.mediano.4;
},
{
alignment = -1;
angle = 67.22762;
pos = (97,343);
ref = _baston.corto.4;
scale = (1,-1);
},
{
alignment = -1;
angle = -106.77238;
pos = (152,655);
ref = _baston.corto.4;
scale = (-1,1);
}
);
width = 595;
}
);
unicode = 83;
},
{
glyphname = U;
lastChange = "2024-06-21 07:47:32 +0000";
layers = (
{
layerId = m01;
shapes = (
{
alignment = -1;
angle = 78;
pos = (662,-108);
ref = _baston.doblado.2;
},
{
alignment = -1;
angle = 150.8222;
pos = (548,241);
ref = _baston.mediano.3;
scale = (1,-1);
},
{
alignment = -1;
angle = -40;
pos = (145,281);
ref = _baston.doble.2;
},
{
angle = -27.16649;
pos = (-18,320);
ref = _baston.mediano.1;
},
{
alignment = -1;
pos = (92,320);
ref = _baston.mediano.11.grueso;
},
{
alignment = -1;
angle = -29.17779;
pos = (234,838);
ref = _baston.mediano.3;
scale = (1,-1);
},
{
alignment = -1;
angle = -161;
pos = (766,24);
ref = _baston.doblado.1;
scale = (1,-1);
},
{
angle = -155.11722;
pos = (440,-5);
ref = _baston.doblado.3;
scale = (1,-1);
},
{
closed = 0;
nodes = (
(548,115,l),
(544,115,o),
(541,115,o),
(538,115,c)
);
},
{
alignment = -1;
angle = 150.8222;
pos = (510,-111);
ref = _baston.mediano.3;
scale = (1,-1);
},
{
alignment = -1;
angle = 180;
pos = (664,633);
ref = _baston.mediano.6;
}
);
width = 724;
}
);
unicode = 85;
},
{
glyphname = X;
lastChange = "2024-06-21 08:04:09 +0000";
layers = (
{
background = {
shapes = (
{
closed = 1;
nodes = (
(-198,626,o),
(-209,543,o),
(-219,524,cs),
(-264,442,l),
(-261,436,l),
(-277,390,o),
(-300,327,o),
(-308,299,cs),
(-316,271,o),
(-330,215,o),
(-332,206,c),
(-346,179,l),
(-391,320,l),
(-415,312,l),
(-398,251,o),
(-363,143,o),
(-362,128,c),
(-362,80,o),
(-366,34,o),
(-376,-16,c),
(-339,-20,l),
(-334,15,o),
(-326,73,o),
(-326,81,cs),
(-325,96,o),
(-326,131,o),
(-325,138,cs),
(-324,143,o),
(-311,161,o),
(-308,173,c),
(-314,178,l),
(-307,214,o),
(-295,265,o),
(-292,272,c),
(-246,383,ls),
(-226,432,o),
(-176,491,o),
(-169,522,cs),
(-138,663,l),
(-187,676,l)
);
},
{
closed = 1;
nodes = (
(246,527,o),
(255,510,o),
(260,488,c),
(272,486,l),
(304,446,l),
(310,445,l),
(326,431,l),
(341,445,l),
(314,477,o),
(273,527,o),
(267,538,cs),
(164,716,l),
(141,702,l),
(173,652,o),
(203,600,o),
(234,543,c),
(233,539,l)
);
},
{
closed = 1;
nodes = (
(297,360,l),
(341,253,l),
(348,232,o),
(366,207,o),
(368,205,cs),
(371,204,o),
(391,165,o),
(392,161,cs),
(393,157,o),
(408,143,o),
(411,133,cs),
(430,82,o),
(437,39,o),
(445,-9,c),
(472,-8,l),
(468,25,l),
(480,36,l),
(433,165,ls),
(430,174,o),
(406,200,o),
(395,218,cs),
(367,269,o),
(344,323,o),
(320,375,c)
);
},
{
closed = 1;
nodes = (
(279,366,l),
(273,354,o),
(232,307,o),
(208,278,c),
(199,244,ls),
(197,240,o),
(143,146,o),
(141,141,cs),
(139,135,o),
(128,102,o),
(121,83,c),
(147,73,l),
(167,130,o),
(198,178,o),
(224,228,cs),
(231,242,o),
(282,312,o),
(283,315,cs),
(285,318,o),
(291,315,o),
(294,318,cs),
(296,321,o),
(295,331,o),
(301,342,cs),
(306,354,o),
(318,376,o),
(327,392,c),
(296,406,l)
);
},
{
closed = 1;
nodes = (
(379,326,l),
(391,306,o),
(405,288,o),
(414,265,cs),
(424,242,o),
(440,181,o),
(443,176,cs),
(447,172,o),
(588,53,o),
(596,44,cs),
(604,35,o),
(620,62,o),
(618,65,cs),
(597,92,l),
(601,111,l),
(588,120,l),
(583,100,l),
(557,118,l),
(559,154,l),
(552,155,l),
(545,129,l),
(525,146,o),
(491,171,o),
(487,182,cs),
(480,200,l),
(487,208,l),
(480,216,l),
(467,207,l),
(461,221,o),
(455,228,o),
(449,248,cs),
(444,269,o),
(428,307,o),
(400,345,cs)
);
},
{
closed = 1;
nodes = (
(100,645,o),
(177,569,o),
(171,559,cs),
(165,548,l),
(171,532,l),
(197,526,l),
(210,509,o),
(234,481,o),
(238,475,cs),
(267,422,o),
(296,367,o),
(328,315,cs),
(406,182,l),
(440,213,l),
(418,248,o),
(329,394,o),
(324,403,cs),
(246,569,l),
(225,581,l),
(203,609,l),
(192,602,l),
(96,723,l),
(60,686,l)
);
},
{
closed = 1;
nodes = (
(533,90,o),
(473,191,o),
(454,210,cs),
(435,228,o),
(305,350,o),
(300,376,cs),
(279,486,l),
(258,487,l),
(260,442,l),
(219,516,l),
(180,478,l),
(201,444,o),
(230,394,o),
(243,377,cs),
(268,345,l),
(249,345,l),
(252,330,l),
(276,315,o),
(306,302,o),
(326,285,cs),
(346,267,o),
(404,212,o),
(417,186,cs),
(509,0,l),
(563,30,l)
);
},
{
closed = 1;
nodes = (
(493,687,o),
(474,608,o),
(470,601,cs),
(466,594,o),
(385,500,o),
(385,496,cs),
(384,493,o),
(382,477,o),
(381,469,cs),
(380,461,o),
(365,430,o),
(357,411,c),
(392,402,l),
(449,489,ls),
(452,493,o),
(507,573,o),
(511,577,cs),
(515,581,o),
(530,634,o),
(539,663,c),
(507,669,l),
(480,584,ls),
(477,574,o),
(443,526,o),
(438,520,cs),
(433,514,o),
(400,458,o),
(381,427,c),
(396,488,ls),
(398,493,o),
(444,539,o),
(446,541,cs),
(449,543,o),
(474,579,o),
(480,595,cs),
(487,612,o),
(506,682,o),
(518,725,c),
(497,736,l)
);
},
{
closed = 1;
nodes = (
(-125,173,o),
(-129,122,o),
(-130,111,cs),
(-131,100,o),
(-138,7,o),
(-140,-9,cs),
(-142,-25,o),
(-143,-169,o),
(-138,-178,c),
(-106,-158,l),
(-109,-110,o),
(-124,-44,o),
(-116,-14,c),
(-77,-40,l),
(-67,-25,l),
(-83,-11,o),
(-112,-1,o),
(-115,17,c),
(-105,82,l),
(-32,100,o),
(100,130,o),
(114,137,cs),
(116,138,o),
(133,176,o),
(128,174,cs),
(51,137,ls),
(30,127,o),
(-28,108,o),
(-67,108,cs),
(-87,108,o),
(-102,114,o),
(-102,129,cs),
(-102,149,o),
(-99,175,o),
(-93,209,c),
(-122,204,l)
);
},
{
closed = 1;
nodes = (
(186,262,l),
(155,203,l),
(134,153,o),
(80,73,o),
(66,64,cs),
(52,56,o),
(33,51,o),
(16,44,c),
(32,14,l),
(54,16,l),
(55,13,o),
(52,8,o),
(51,4,c),
(83,-10,l),
(104,17,l),
(110,18,l),
(203,192,l),
(207,176,o),
(162,110,o),
(140,72,c),
(152,65,l),
(207,160,l),
(215,171,o),
(224,219,o),
(232,248,c)
);
}
);
};
layerId = m01;
shapes = (
{
alignment = -1;
angle = -172.1;
pos = (306,723);
ref = _baston.mediano.1;
},
{
angle = -178;
pos = (462,504);
ref = _baston.mediano.2;
},
{
angle = 177;
pos = (333,516);
ref = _baston.mediano.3;
},
{
angle = -52.1;
pos = (173,176);
ref = _baston.mediano.4;
},
{
alignment = -1;
angle = 30.89999;
pos = (373,144);
ref = _baston.mediano.6;
},
{
alignment = -1;
angle = 32.9;
pos = (502,-56);
ref = _baston.mediano.7;
},
{
alignment = -1;
angle = -69;
pos = (-33,532);
ref = _baston.doble.2;
},
{
alignment = -1;
angle = -160.9;
pos = (322,-11);
ref = _baston.corto.1;
scale = (1,-1);
}
);
width = 635;
}
);
unicode = 88;
},
{
export = 0;
glyphname = _bifuracion.2;
lastChange = "2024-06-10 06:46:26 +0000";
layers = (
{
layerId = m01;
shapes = (
{
closed = 1;
nodes = (
(17,375,o),
(13,324,o),
(12,313,cs),
(11,302,o),
(4,209,o),
(2,193,cs),
(0,177,o),
(-1,33,o),
(4,24,c),
(36,44,l),
(33,92,o),
(18,158,o),
(26,188,c),
(65,162,l),
(75,177,l),
(59,191,o),
(30,201,o),
(27,219,c),
(37,284,l),
(110,302,o),
(242,332,o),
(256,339,cs),
(258,340,o),
(275,378,o),
(270,376,cs),
(193,339,ls),
(172,329,o),
(114,310,o),
(75,310,cs),
(55,310,o),
(40,316,o),
(40,331,cs),
(40,351,o),
(43,377,o),
(49,411,c),
(20,406,l)
);
}
);
width = 271;
}
);
},
{
export = 0;
glyphname = _bifuracion.3;
lastChange = "2024-06-10 07:31:36 +0000";
layers = (
{
layerId = m01;
shapes = (
{
closed = 1;
nodes = (
(35,513,o),
(141,490,o),
(158,485,cs),
(193,474,o),
(263,416,o),
(265,405,c),
(265,362,l),
(234,337,l),
(234,330,l),
(189,291,o),
(143,283,o),
(78,275,c),
(80,221,l),
(156,234,o),
(229,267,o),
(255,288,cs),
(322,339,o),
(316,373,o),
(328,377,cs),
(376,391,l),
(371,438,l),
(350,436,o),
(332,434,o),
(317,438,cs),
(303,441,o),
(216,508,o),
(175,519,cs),
(114,536,o),
(36,554,o),
(-37,558,c),
(-37,518,l)
);
}
);
width = 339;
}
);
},
{
export = 0;
glyphname = _bifuracion.5;
lastChange = "2024-06-10 07:49:23 +0000";
layers = (
{
layerId = m01;
shapes = (
{
closed = 1;
nodes = (
(348,-44,o),
(404,-18,o),
(455,11,c),
(444,31,o),
(434,53,o),
(423,70,c),
(403,77,l),
(408,47,o),
(342,83,o),
(323,92,cs),
(285,109,o),
(245,124,o),
(196,129,cs),
(186,130,o),
(189,155,o),
(188,169,cs),
(180,344,ls),
(177,401,o),
(181,464,o),
(191,536,c),
(180,540,o),
(129,542,o),
(116,517,cs),
(114,512,o),
(108,329,o),
(108,319,cs),
(108,309,o),
(119,207,o),
(119,197,cs),
(121,153,o),
(121,142,o),
(114,142,cs),
(98,142,o),
(79,149,o),
(66,150,c),
(38,140,o),
(25,100,o),
(50,92,c),
(216,84,o),
(330,51,o),
(342,16,cs),
(345,8,o),
(315,-25,o),
(278,-48,c),
(286,-66,l)
);
}
);
width = 492;
}
);
},
{
export = 0;
glyphname = _bifurcacion.1;
lastChange = "2024-06-10 06:36:45 +0000";
layers = (
{
layerId = m01;
shapes = (
{
closed = 1;
nodes = (
(61,36,o),
(75,118,o),
(86,137,cs),
(134,217,l),
(131,224,l),
(148,269,o),
(174,331,o),
(183,359,cs),
(192,387,o),
(208,442,o),
(210,451,c),
(225,477,l),
(265,335,l),
(289,342,l),
(274,404,o),
(243,513,o),
(243,528,c),
(244,576,o),
(250,622,o),
(262,671,c),
(225,677,l),
(219,642,o),
(209,584,o),
(208,576,cs),
(207,561,o),
(206,526,o),
(205,519,cs),
(204,514,o),
(190,497,o),
(187,485,c),
(193,480,l),
(185,444,o),
(171,393,o),
(168,386,c),
(118,277,ls),
(96,229,o),
(44,172,o),
(36,141,cs),
(0,1,l),
(49,-14,l)
);
}
);
width = 289;
}
);
},
{
export = 0;
glyphname = _baston.corto.1;
lastChange = "2024-06-10 06:48:14 +0000";
layers = (
{
layerId = m01;
shapes = (
{
closed = 1;
nodes = (
(17,249,o),
(42,207,o),
(53,199,c),
(136,128,l),
(145,138,l),
(112,167,o),
(48,214,o),
(46,231,c),
(191,97,l),
(197,98,l),
(226,79,l),
(251,103,l),
(249,106,o),
(244,110,o),
(245,113,c),
(266,119,l),
(271,152,l),
(253,153,o),
(233,152,o),
(217,155,cs),
(201,158,o),
(124,216,o),
(88,257,c),
(39,302,l),
(0,274,l)
);
}
);
width = 271;
}
);
},
{
export = 0;
glyphname = _baston.corto.2;
lastChange = "2024-06-10 06:52:47 +0000";
layers = (
{
layerId = m01;
shapes = (
{
closed = 1;
nodes = (
(0,267,l),
(25,268,o),
(67,271,o),
(78,271,cs),
(89,271,o),
(106,268,o),
(108,269,cs),
(110,270,o),
(163,290,o),
(170,292,cs),
(244,315,l),
(240,335,l),
(198,325,o),
(131,306,o),
(116,305,cs),
(0,300,l)
);
}
);
width = 244;
}
);
},
{
export = 0;
glyphname = _baston.corto.3;
lastChange = "2024-06-10 07:30:33 +0000";
layers = (
{
layerId = m01;
shapes = (
{
closed = 1;
nodes = (
(417,558,o),
(422,580,o),
(418,604,c),
(362,609,o),
(309,609,o),
(250,620,c),
(238,614,l),
(183,621,o),
(116,628,o),
(112,638,c),
(84,637,l),
(78,628,o),
(52,630,o),
(8,630,c),
(0,581,l),
(89,577,ls),
(93,577,o),
(87,566,o),
(82,560,c),
(92,553,l),
(99,560,o),
(124,578,o),
(136,577,cs),
(227,572,o),
(309,554,o),
(407,536,c)
);
}
);
width = 419;
}
);
},
{
export = 0;
glyphname = _baston.corto.4;
lastChange = "2024-06-10 07:46:04 +0000";
layers = (
{
layerId = m01;
shapes = (
{
closed = 1;
nodes = (
(98,287,l),
(99,292,o),
(100,339,o),
(101,359,c),
(75,364,l),
(71,351,l),
(67,347,o),
(62,344,o),
(54,342,c),
(7,345,l),
(2,343,o),
(-1,337,o),
(1,325,c),
(55,317,o),
(59,304,o),
(58,290,cs),
(58,286,o),
(56,197,o),
(54,178,cs),
(52,159,o),
(43,107,o),
(37,72,c),
(83,71,l)
);
}
);
width = 101;
}
);
},
{
export = 0;
glyphname = _baston.corto.5;
lastChange = "2024-06-13 07:08:16 +0000";
layers = (
{
layerId = m01;
shapes = (
{
closed = 1;
nodes = (
(5,326,l),
(63,331,l),
(53,403,l),
(67,370,l),
(82,381,l),
(71,413,o),
(48,456,o),
(48,478,cs),
(48,495,o),
(63,508,o),
(71,523,c),
(62,532,l),
(40,505,l),
(42,589,l),
(0,589,l)
);
}
);
width = 82;
}
);
},
{
export = 0;
glyphname = _baston.corto.6;
lastChange = "2024-06-10 07:50:23 +0000";
layers = (
{
layerId = m01;
shapes = (
{
closed = 1;
nodes = (
(232,315,l),
(186,336,o),
(72,332,o),
(2,340,c),
(0,294,l),
(85,296,ls),
(114,297,o),
(153,279,o),
(172,274,cs),
(191,269,o),
(217,273,o),
(229,272,c)
);
}
);
width = 232;
}
);
},
{
export = 0;
glyphname = _baston.corto.7;
lastChange = "2024-06-13 07:08:52 +0000";
layers = (
{
layerId = m01;
shapes = (
{
closed = 1;
nodes = (
(163,202,l),
(90,257,l),
(0,109,l),
(9,85,o),
(50,53,o),
(50,51,c)
);
}
);
width = 163;
}
);
},
{
export = 0;
glyphname = _baston.corto.8;
lastChange = "2024-06-13 07:09:37 +0000";
layers = (
{
layerId = m01;
shapes = (
{
closed = 1;
nodes = (
(0,390,l),
(64,379,o),
(185,360,o),
(193,357,c),
(265,299,l),
(281,317,l),
(269,332,o),
(233,358,o),
(245,361,cs),
(296,376,l),
(295,396,l),
(267,393,o),
(235,384,o),
(211,386,c),
(142,386,o),
(75,393,o),
(8,416,c)
);
}
);
width = 296;
}
);
},
{
export = 0;
glyphname = _baston.doblado.1;
lastChange = "2024-06-10 07:43:35 +0000";
layers = (
{
layerId = m01;
shapes = (
{
closed = 1;
nodes = (
(359,72,o),
(373,84,o),
(375,89,cs),
(377,94,o),
(441,160,o),
(474,196,c),
(452,227,l),
(417,196,o),
(373,142,o),
(346,132,cs),
(336,128,o),
(228,169,o),
(215,171,cs),
(202,173,o),
(108,172,o),
(55,172,c),
(52,155,l),
(201,130,l),
(214,130,o),
(339,82,o),
(349,77,cs)
);
}
);
width = 522;
}
);
},
{
export = 0;
glyphname = _baston.doblado.2;
lastChange = "2024-06-10 07:48:18 +0000";
layers = (
{
layerId = m01;
shapes = (
{
closed = 1;
nodes = (
(111,338,o),
(174,457,o),
(194,473,cs),
(218,492,o),
(331,541,o),
(388,572,c),
(387,597,o),
(374,617,o),
(354,637,c),
(255,587,o),
(109,498,o),
(98,486,cs),
(88,475,o),
(65,365,o),
(45,317,c),
(82,298,l)
);
}
);
width = 410;
}
);
},
{
export = 0;
glyphname = _baston.doblado.3;
lastChange = "2024-06-13 07:11:53 +0000";
layers = (
{
layerId = m01;
shapes = (
{
closed = 1;
nodes = (
(169,253,o),
(169,143,o),
(167,138,cs),
(165,133,o),
(98,97,o),
(91,92,c),
(0,21,l),
(17,-1,l),
(42,17,o),
(84,48,o),
(93,53,cs),
(102,58,o),
(206,110,o),
(215,115,cs),
(224,120,o),
(254,200,o),
(272,211,c),
(324,227,l),
(323,241,l),
(304,236,o),
(282,233,o),
(267,225,cs),
(252,217,o),
(252,219,o),
(248,235,c),
(255,298,l),
(170,311,l)
);
}
);
width = 324;
}
);
},
{
export = 0;
glyphname = _baston.doblado.4;
lastChange = "2024-06-13 07:12:59 +0000";
layers = (
{
layerId = m01;
shapes = (
{
closed = 1;
nodes = (
(171,20,o),
(321,59,o),
(371,71,c),
(445,85,l),
(432,116,l),
(395,108,o),
(266,78,o),
(177,78,cs),
(169,78,o),
(105,106,o),
(96,128,c),
(95,164,l),
(88,181,o),
(64,184,o),
(63,172,cs),
(62,164,o),
(62,157,o),
(60,150,cs),
(58,143,o),
(50,138,o),
(41,142,c),
(22,152,l),
(0,113,l),
(66,86,o),
(75,53,o),
(116,33,c),
(64,14,l),
(65,-18,l),
(119,6,ls),
(125,9,o),
(135,5,o),
(140,7,cs),
(168,19,ls)
);
}
);
width = 445;
}
);
},
{
export = 0;
glyphname = _baston.doble.2;
lastChange = "2024-06-10 06:55:47 +0000";
layers = (
{
layerId = m01;
shapes = (
{
closed = 1;
nodes = (
(44,546,o),
(111,500,o),
(116,494,cs),
(121,488,o),
(180,379,o),
(183,377,cs),
(186,375,o),
(200,368,o),
(207,364,cs),
(214,360,o),
(238,335,o),
(253,321,c),
(274,350,l),
(213,434,ls),
(210,439,o),
(155,519,o),
(153,524,cs),
(151,529,o),
(106,562,o),
(83,581,c),
(65,553,l),
(135,498,ls),
(144,491,o),
(176,442,o),
(180,435,cs),
(184,428,o),
(224,378,o),
(246,349,c),
(195,385,ls),
(191,388,o),
(164,448,o),
(163,451,cs),
(162,454,o),
(138,490,o),
(125,502,cs),
(112,514,o),
(53,557,o),
(17,584,c),
(0,568,l)
);
}
);
width = 274;
}
);
},
{
export = 0;
glyphname = _baston.mediano.1;
lastChange = "2024-06-10 06:38:03 +0000";
layers = (
{
layerId = m01;
shapes = (
{
closed = 1;
nodes = (
(84,186,o),
(77,204,o),
(75,227,c),
(64,230,l),
(37,274,l),
(31,275,l),
(17,291,l),
(0,279,l),
(23,244,o),
(57,189,o),
(62,178,cs),
(143,-12,l),
(167,0,l),
(142,53,o),
(118,108,o),
(94,169,c),
(96,173,l)
);
}
);
width = 167;
}
);
},
{
export = 0;
glyphname = _baston.mediano.10;
lastChange = "2024-06-13 07:11:04 +0000";
layers = (
{
layerId = m01;
shapes = (
{
closed = 1;
nodes = (
(265,666,l),
(252,675,l),
(104,583,l),
(0,520,l),
(17,501,l),
(287,639,l),
(328,619,l),
(348,623,l),
(334,630,o),
(314,637,o),
(306,644,cs),
(298,651,o),
(295,657,o),
(324,668,c),
(388,689,l),
(386,715,l)
);
}
);
width = 388;
}
);
},
{
export = 0;
glyphname = _baston.mediano.2;
lastChange = "2024-06-10 06:39:02 +0000";
layers = (
{
layerId = m01;
shapes = (
{
closed = 1;
nodes = (
(172,141,l),
(132,250,l),
(126,271,o),
(108,296,o),
(106,298,cs),
(104,300,o),
(85,339,o),
(84,343,cs),
(83,347,o),
(69,362,o),
(66,372,cs),
(49,424,o),
(43,467,o),
(37,515,c),
(10,515,l),
(13,482,l),
(0,471,l),
(43,341,ls),
(46,332,o),
(69,305,o),
(79,286,cs),
(105,234,o),
(126,180,o),
(149,127,c)
);
}
);
width = 172;
}
);
},
{
export = 0;
glyphname = _baston.mediano.3;
lastChange = "2024-06-10 06:40:47 +0000";
layers = (
{
layerId = m01;
shapes = (
{
closed = 1;
nodes = (
(46,153,l),
(51,165,o),
(90,214,o),
(112,244,c),
(120,279,ls),
(121,283,o),
(170,379,o),
(172,385,cs),
(174,391,o),
(183,424,o),
(189,443,c),
(163,452,l),
(146,394,o),
(117,345,o),
(94,293,cs),
(88,279,o),
(40,206,o),
(39,203,cs),
(38,200,o),
(31,203,o),
(29,200,cs),
(27,197,o),
(28,187,o),
(23,175,cs),
(18,163,o),
(8,141,o),
(0,124,c),
(31,112,l)
);
}
);
width = 189;
}
);
},
{
export = 0;
glyphname = _baston.mediano.4;
lastChange = "2024-06-10 06:42:26 +0000";
layers = (
{
layerId = m01;
shapes = (
{
closed = 1;
nodes = (
(3,255,l),
(26,252,o),
(49,252,o),
(73,246,cs),
(97,240,o),
(155,216,o),
(161,216,cs),
(167,216,o),
(347,257,o),
(359,258,cs),
(371,259,o),
(359,288,o),
(355,288,cs),
(321,288,l),
(308,302,l),
(293,298,l),
(306,281,l),
(276,272,l),
(248,295,l),
(243,290,l),
(260,268,l),
(234,263,o),
(194,251,o),
(183,254,cs),
(164,259,l),
(162,270,l),
(151,269,l),
(151,253,l),
(136,257,o),
(127,256,o),
(107,264,cs),
(87,272,o),
(47,282,o),
(0,283,cs)
);
}
);
width = 364;
}
);
},
{
export = 0;
glyphname = _baston.mediano.5;
lastChange = "2024-06-10 06:58:20 +0000";
layers = (
{
layerId = m01;
shapes = (
{
closed = 1;
nodes = (
(47,577,l),
(33,564,l),
(45,513,l),
(46,496,o),
(36,453,o),
(32,423,c),
(27,417,l),
(21,418,l),
(14,411,l),
(21,405,l),
(18,321,o),
(10,272,o),
(1,207,cs),
(0,200,o),
(0,149,o),
(0,120,c),
(47,126,l),
(29,224,l),
(30,231,o),
(45,376,o),
(47,387,cs),
(49,398,o),
(66,454,o),
(67,463,cs),
(68,472,o),
(68,510,o),
(68,533,c),
(84,534,l),
(84,587,l),
(83,590,o),
(77,600,o),
(73,607,c),
(59,597,l),
(46,635,l),
(28,625,l)
);
}
);
width = 84;
}
);
},
{
export = 0;
glyphname = _baston.mediano.6;
lastChange = "2024-06-10 07:05:49 +0000";
layers = (
{
layerId = m01;
shapes = (
{
closed = 1;
nodes = (
(23,570,o),
(50,465,o),
(40,460,cs),
(29,454,l),
(26,437,l),
(45,418,l),
(48,397,o),
(54,361,o),
(54,354,cs),
(52,293,o),
(49,231,o),
(49,170,cs),
(48,16,l),
(93,25,l),
(92,66,o),
(90,237,o),
(91,247,cs),
(109,430,l),
(97,451,l),
(93,486,l),
(80,486,l),
(60,639,l),
(10,626,l)
);
}
);
width = 105;
}
);
},
{
export = 0;
glyphname = _baston.mediano.7;
lastChange = "2024-06-10 07:30:49 +0000";
layers = (
{
layerId = m01;
shapes = (
{
closed = 1;
nodes = (
(105,106,o),
(110,223,o),
(104,249,cs),
(98,275,o),
(55,448,o),
(65,473,cs),
(107,576,l),
(90,588,l),
(67,550,l),
(73,634,l),
(20,623,l),
(19,583,o),
(16,526,o),
(18,504,cs),
(21,464,l),
(5,474,l),
(0,460,l),
(12,434,o),
(30,407,o),
(37,382,cs),
(44,356,o),
(63,278,o),
(60,250,cs),
(36,43,l),
(98,39,l)
);
}
);
width = 107;
}
);
},
{
export = 0;
glyphname = _baston.mediano.8;
lastChange = "2024-06-13 07:10:07 +0000";
layers = (
{
layerId = m01;
shapes = (
{
closed = 1;
nodes = (
(0,369,l),
(57,358,o),
(141,337,o),
(170,336,cs),
(199,335,o),
(241,330,o),
(249,329,cs),
(257,328,o),
(307,286,o),
(376,266,c),
(385,297,l),
(375,304,o),
(363,299,o),
(356,318,c),
(352,373,l),
(321,373,l),
(321,361,o),
(329,339,o),
(320,337,cs),
(311,335,o),
(278,361,o),
(263,363,cs),
(113,382,l),
(7,404,l)
);
}
);
width = 385;
}
);
},
{
export = 0;
glyphname = _baston.mediano.9;
lastChange = "2024-06-13 07:10:38 +0000";
layers = (
{
layerId = m01;
shapes = (
{
closed = 1;
nodes = (
(270,727,o),
(255,694,o),
(221,667,c),
(0,512,l),
(14,488,l),
(23,492,o),
(33,501,o),
(44,506,cs),
(59,513,o),
(77,502,o),
(93,496,c),
(104,507,l),
(62,528,l),
(134,581,o),
(209,623,o),
(279,686,cs),
(282,689,o),
(285,696,o),
(292,690,c),
(312,655,l),
(321,664,l),
(316,679,o),
(306,698,o),
(305,710,c),
(317,740,l),
(294,757,l)
);
}
);
width = 321;
}
);
},
{
export = 0;
glyphname = _baston.mediano.11.grueso;
lastChange = "2024-06-14 07:19:24 +0000";
layers = (
{
layerId = m01;
shapes = (
{
closed = 1;
nodes = (
(59,42,l),
(58,175,l),
(74,156,l),
(83,184,l),
(78,190,o),
(71,199,o),
(69,203,cs),
(67,207,o),
(69,224,o),
(64,233,c),
(61,263,l),
(63,360,l),
(72,369,l),
(68,387,l),
(56,393,o),
(32,397,o),
(10,387,cs),
(8,386,o),
(9,365,o),
(6,363,c),
(10,310,o),
(10,283,o),
(6,230,c),
(0,200,l),
(14,193,l),
(17,144,o),
(13,93,o),
(8,42,c),
(16,39,o),
(20,33,o),
(32,33,c)
);
}
